<svg xmlns="http://www.w3.org/2000/svg" viewBox="0 0 133.142 38.208">
  <title>Asset 2</title>
  <g id="Layer_2" data-name="Layer 2">
    <g id="Lager_1" data-name="Lager 1">
      <g>
        <path d="M133.142,34.378a3.83,3.83,0,0,1-3.834,3.83H3.839A3.835,3.835,0,0,1,0,34.378V3.835A3.839,3.839,0,0,1,3.839,0H129.307a3.834,3.834,0,0,1,3.834,3.835V34.378Z"/>
        <g>
          <path d="M29.238,18.894A5.8,5.8,0,0,1,32,14.029,5.935,5.935,0,0,0,27.323,11.5c-1.967-.207-3.874,1.177-4.877,1.177-1.022,0-2.565-1.157-4.227-1.122a6.227,6.227,0,0,0-5.24,3.2c-2.266,3.923-.576,9.688,1.595,12.859,1.086,1.553,2.355,3.287,4.016,3.226,1.625-.067,2.232-1.036,4.193-1.036,1.943,0,2.513,1.036,4.207,1,1.744-.028,2.842-1.56,3.89-3.127a12.842,12.842,0,0,0,1.779-3.623A5.6,5.6,0,0,1,29.238,18.894Z" style="fill: #fff"/>
          <path d="M26.038,9.416a5.708,5.708,0,0,0,1.306-4.089,5.808,5.808,0,0,0-3.758,1.944,5.432,5.432,0,0,0-1.34,3.938A4.8,4.8,0,0,0,26.038,9.416Z" style="fill: #fff"/>
        </g>
        <g>
          <path d="M52.755,30.614H50.484L49.24,26.7H44.916l-1.185,3.909H41.52L45.8,17.306h2.646Zm-3.89-5.549L47.74,21.59q-.178-.533-.671-2.507h-.04q-.2.85-.632,2.507l-1.105,3.475Z" style="fill: #fff"/>
          <path d="M63.772,25.7a5.455,5.455,0,0,1-1.323,3.869,3.868,3.868,0,0,1-2.942,1.264,2.941,2.941,0,0,1-2.725-1.362h-.04v5.055H54.611V24.177q0-1.54-.079-3.159h1.875l.119,1.52h.04a3.794,3.794,0,0,1,6.071-.376A5.294,5.294,0,0,1,63.772,25.7Zm-2.172.078a3.953,3.953,0,0,0-.632-2.31,2.183,2.183,0,0,0-1.856-.948,2.214,2.214,0,0,0-1.431.523,2.425,2.425,0,0,0-.839,1.373,2.8,2.8,0,0,0-.1.65v1.6a2.563,2.563,0,0,0,.642,1.768,2.129,2.129,0,0,0,1.668.721,2.183,2.183,0,0,0,1.875-.928A4.091,4.091,0,0,0,61.6,25.776Z" style="fill: #fff"/>
          <path d="M74.809,25.7a5.451,5.451,0,0,1-1.324,3.869,3.865,3.865,0,0,1-2.941,1.264,2.94,2.94,0,0,1-2.724-1.362H67.78v5.055H65.648V24.177q0-1.54-.079-3.159h1.875l.119,1.52h.04a3.795,3.795,0,0,1,6.072-.376A5.3,5.3,0,0,1,74.809,25.7Zm-2.172.078A3.95,3.95,0,0,0,72,23.466a2.181,2.181,0,0,0-1.855-.948,2.215,2.215,0,0,0-1.432.523,2.429,2.429,0,0,0-.838,1.373,2.821,2.821,0,0,0-.1.65v1.6a2.569,2.569,0,0,0,.64,1.768,2.131,2.131,0,0,0,1.67.721,2.183,2.183,0,0,0,1.875-.928A4.091,4.091,0,0,0,72.637,25.776Z" style="fill: #fff"/>
          <path d="M87.149,26.882a3.545,3.545,0,0,1-1.182,2.764,5.237,5.237,0,0,1-3.625,1.165,6.35,6.35,0,0,1-3.449-.829l.494-1.777a5.839,5.839,0,0,0,3.082.85,2.913,2.913,0,0,0,1.877-.544,1.776,1.776,0,0,0,.67-1.454,1.854,1.854,0,0,0-.553-1.364,5.152,5.152,0,0,0-1.836-1.029q-3.5-1.3-3.494-3.816a3.38,3.38,0,0,1,1.225-2.689,4.832,4.832,0,0,1,3.258-1.048,6.458,6.458,0,0,1,3.019.632L86.1,19.478a5.241,5.241,0,0,0-2.547-.612,2.574,2.574,0,0,0-1.756.553,1.578,1.578,0,0,0-.533,1.2,1.625,1.625,0,0,0,.611,1.3,6.908,6.908,0,0,0,1.935,1.027,6.571,6.571,0,0,1,2.527,1.618A3.394,3.394,0,0,1,87.149,26.882Z" style="fill: #fff"/>
          <path d="M94.2,22.618h-2.35v4.659q0,1.777,1.244,1.777a3.826,3.826,0,0,0,.947-.1l.059,1.619a4.821,4.821,0,0,1-1.658.236,2.558,2.558,0,0,1-1.975-.77,3.783,3.783,0,0,1-.711-2.587V22.618h-1.4v-1.6h1.4V19.261l2.094-.632v2.389H94.2Z" style="fill: #fff"/>
          <path d="M104.8,25.737a5.265,5.265,0,0,1-1.264,3.633,4.513,4.513,0,0,1-3.516,1.461,4.289,4.289,0,0,1-3.365-1.4A5.1,5.1,0,0,1,95.4,25.9,5.212,5.212,0,0,1,96.7,22.243a4.476,4.476,0,0,1,3.484-1.422,4.382,4.382,0,0,1,3.4,1.4A5.056,5.056,0,0,1,104.8,25.737Zm-2.213.069a4.322,4.322,0,0,0-.572-2.277A2.107,2.107,0,0,0,100.1,22.38a2.137,2.137,0,0,0-1.955,1.148,4.4,4.4,0,0,0-.572,2.317,4.316,4.316,0,0,0,.572,2.276A2.179,2.179,0,0,0,102,28.1,4.325,4.325,0,0,0,102.588,25.806Z" style="fill: #fff"/>
          <path d="M111.731,22.893a3.689,3.689,0,0,0-.672-.059,2.016,2.016,0,0,0-1.738.85,3.191,3.191,0,0,0-.533,1.895v5.035h-2.131l.02-6.574q0-1.66-.08-3.021h1.858l.078,1.836h.059a3.276,3.276,0,0,1,1.066-1.52,2.579,2.579,0,0,1,1.541-.514,3.376,3.376,0,0,1,.533.039Z" style="fill: #fff"/>
          <path d="M121.266,25.362a5.012,5.012,0,0,1-.078.967h-6.4a2.785,2.785,0,0,0,.928,2.173,3.167,3.167,0,0,0,2.092.671,7.081,7.081,0,0,0,2.588-.454l.334,1.48a8.011,8.011,0,0,1-3.217.593,4.656,4.656,0,0,1-3.506-1.313,4.851,4.851,0,0,1-1.273-3.524,5.5,5.5,0,0,1,1.185-3.613,4.086,4.086,0,0,1,3.356-1.539,3.575,3.575,0,0,1,3.141,1.539A5.188,5.188,0,0,1,121.266,25.362Zm-2.033-.553a2.9,2.9,0,0,0-.414-1.639,1.863,1.863,0,0,0-1.7-.889,2.023,2.023,0,0,0-1.7.869,3.172,3.172,0,0,0-.631,1.658Z" style="fill: #fff"/>
        </g>
        <g>
          <path d="M47.714,12.543H46.666V9.594H43.834v2.949H42.786V6.005h1.048V8.673h2.832V6.005h1.048Z" style="fill: #fff"/>
          <path d="M53.145,12.543H52.2L52.124,12h-.029a1.616,1.616,0,0,1-1.376.65,1.417,1.417,0,0,1-1.075-.427,1.338,1.338,0,0,1-.368-.96A1.466,1.466,0,0,1,50,9.943,3.757,3.757,0,0,1,52.03,9.5V9.41q0-.931-.977-.931a2.192,2.192,0,0,0-1.229.349l-.213-.688a3.019,3.019,0,0,1,1.617-.407q1.85,0,1.85,1.95v1.736A7.376,7.376,0,0,0,53.145,12.543Zm-2.2-5.907a.539.539,0,0,1-.148.388.493.493,0,0,1-.37.155.5.5,0,0,1-.375-.16.535.535,0,0,1-.154-.383.523.523,0,0,1,.159-.383.517.517,0,0,1,.38-.16.473.473,0,0,1,.365.16A.555.555,0,0,1,50.943,6.636Zm1.115,4.287V10.2q-1.736-.029-1.735.95a.712.712,0,0,0,.2.553.733.733,0,0,0,.512.184,1.052,1.052,0,0,0,.641-.218.893.893,0,0,0,.362-.558A.785.785,0,0,0,52.059,10.923Zm.7-4.287a.536.536,0,0,1-.149.388.5.5,0,0,1-.38.155.486.486,0,0,1-.37-.16.546.546,0,0,1-.148-.383.534.534,0,0,1,.153-.383.514.514,0,0,1,.385-.16.47.47,0,0,1,.365.16A.555.555,0,0,1,52.758,6.636Z" style="fill: #fff"/>
          <path d="M61.662,12.543H60.634V9.9q0-1.307-.893-1.306a.826.826,0,0,0-.683.324,1.183,1.183,0,0,0-.258.759v2.864H57.772V9.766a1.484,1.484,0,0,0-.219-.852.73.73,0,0,0-.644-.319.849.849,0,0,0-.7.348,1.258,1.258,0,0,0-.271.793v2.806H54.91V9.177q0-.621-.038-1.349h.9l.049.717h.029a1.57,1.57,0,0,1,1.435-.814,1.278,1.278,0,0,1,1.3.882h.02a1.865,1.865,0,0,1,.553-.591,1.634,1.634,0,0,1,.96-.291,1.372,1.372,0,0,1,1.038.427,2.238,2.238,0,0,1,.5,1.591Z" style="fill: #fff"/>
          <path d="M65.872,8.614H64.718V10.9q0,.873.611.873a1.854,1.854,0,0,0,.466-.049l.028.8a2.365,2.365,0,0,1-.814.117,1.254,1.254,0,0,1-.97-.378,1.852,1.852,0,0,1-.35-1.271V8.614H63V7.829h.688V6.965l1.028-.31V7.829h1.154Z" style="fill: #fff"/>
          <path d="M70.858,12.543h-.941L69.838,12h-.029a1.614,1.614,0,0,1-1.377.65,1.42,1.42,0,0,1-1.077-.427,1.338,1.338,0,0,1-.368-.96,1.466,1.466,0,0,1,.723-1.319A3.76,3.76,0,0,1,69.743,9.5V9.41q0-.931-.978-.931a2.191,2.191,0,0,0-1.229.349l-.213-.688a3.021,3.021,0,0,1,1.618-.407q1.849,0,1.85,1.95v1.736A7.374,7.374,0,0,0,70.858,12.543Zm-1.088-1.62V10.2q-1.734-.029-1.735.95a.714.714,0,0,0,.2.553.734.734,0,0,0,.512.184,1.052,1.052,0,0,0,.641-.218.891.891,0,0,0,.363-.558A.847.847,0,0,0,69.77,10.923Z" style="fill: #fff"/>
          <path d="M76.618,6.422a.6.6,0,0,1-.184.456.661.661,0,0,1-.475.175.6.6,0,0,1-.441-.179.606.606,0,0,1-.18-.451.586.586,0,0,1,.184-.446.682.682,0,0,1,.912,0A.586.586,0,0,1,76.618,6.422ZM76.5,12.543H75.454V7.829H76.5Z" style="fill: #fff"/>
        </g>
      </g>
    </g>
  </g>
</svg>
