<svg xmlns="http://www.w3.org/2000/svg" xmlns:xlink="http://www.w3.org/1999/xlink" viewBox="0 0 135 40">
  <defs>
    <linearGradient id="linear-gradient" x1="21.8" y1="187.121" x2="5.017" y2="170.339" gradientTransform="matrix(1, 0, 0, -1, 0, 195.831)" gradientUnits="userSpaceOnUse">
      <stop offset="0" stop-color="#4595d1"/>
      <stop offset="0.007" stop-color="#4496d2"/>
      <stop offset="0.26" stop-color="#3db7ea"/>
      <stop offset="0.512" stop-color="#48c0ec"/>
      <stop offset="0.76" stop-color="#5bc2e5"/>
      <stop offset="1" stop-color="#5fc3e4"/>
    </linearGradient>
    <linearGradient id="linear-gradient-2" x1="33.834" y1="175.83" x2="9.637" y2="175.83" gradientTransform="matrix(1, 0, 0, -1, 0, 195.831)" gradientUnits="userSpaceOnUse">
      <stop offset="0" stop-color="#ffdf06"/>
      <stop offset="0.409" stop-color="#fabb0c"/>
      <stop offset="0.775" stop-color="#f5a216"/>
      <stop offset="1" stop-color="#f4991a"/>
    </linearGradient>
    <linearGradient id="linear-gradient-3" x1="24.827" y1="173.535" x2="2.069" y2="150.777" gradientTransform="matrix(1, 0, 0, -1, 0, 195.831)" gradientUnits="userSpaceOnUse">
      <stop offset="0" stop-color="#e74149"/>
      <stop offset="1" stop-color="#c20f62"/>
    </linearGradient>
    <linearGradient id="linear-gradient-4" x1="7.297" y1="195.655" x2="17.46" y2="185.492" gradientTransform="matrix(1, 0, 0, -1, 0, 195.831)" gradientUnits="userSpaceOnUse">
      <stop offset="0" stop-color="#319f71"/>
      <stop offset="0.069" stop-color="#2ba671"/>
      <stop offset="0.476" stop-color="#4eb16f"/>
      <stop offset="0.801" stop-color="#60b468"/>
      <stop offset="1" stop-color="#63b563"/>
    </linearGradient>
  </defs>
  <title>Asset 1</title>
  <g id="Layer_2" data-name="Layer 2">
    <g id="Lager_1" data-name="Lager 1">
      <g>
        <g>
          <rect width="135" height="40" rx="5" ry="5"/>
          <path d="M68.136,21.752A4.253,4.253,0,1,0,72.405,26,4.192,4.192,0,0,0,68.136,21.752Zm0,6.831A2.584,2.584,0,1,1,70.536,26,2.461,2.461,0,0,1,68.136,28.583Zm-9.313-6.831A4.253,4.253,0,1,0,63.092,26,4.192,4.192,0,0,0,58.822,21.752Zm0,6.831A2.584,2.584,0,1,1,61.223,26,2.461,2.461,0,0,1,58.822,28.583ZM47.744,23.057v1.8h4.318a3.766,3.766,0,0,1-.983,2.272,4.42,4.42,0,0,1-3.335,1.321,4.8,4.8,0,0,1,0-9.6A4.6,4.6,0,0,1,51,20.141l1.273-1.273a6.294,6.294,0,0,0-4.527-1.82,6.606,6.606,0,1,0,0,13.211,6.039,6.039,0,0,0,4.608-1.853,5.962,5.962,0,0,0,1.563-4.221,5.872,5.872,0,0,0-.1-1.128Zm45.308,1.4a3.953,3.953,0,0,0-3.641-2.707A4.042,4.042,0,0,0,85.4,26a4.162,4.162,0,0,0,4.221,4.253,4.231,4.231,0,0,0,3.544-1.885l-1.45-.967a2.429,2.429,0,0,1-2.094,1.176,2.164,2.164,0,0,1-2.062-1.289l5.687-2.352Zm-5.8,1.418A2.333,2.333,0,0,1,89.475,23.4a1.647,1.647,0,0,1,1.579.9ZM82.628,30H84.5V17.5H82.628Zm-3.061-7.3H79.5a2.947,2.947,0,0,0-2.239-.951,4.257,4.257,0,0,0,0,8.506,2.9,2.9,0,0,0,2.239-.967h.064V29.9c0,1.627-.87,2.5-2.272,2.5a2.353,2.353,0,0,1-2.143-1.514l-1.627.677a4.053,4.053,0,0,0,3.77,2.513c2.191,0,4.044-1.289,4.044-4.43V22.009H79.567Zm-2.143,5.88a2.587,2.587,0,0,1,0-5.155A2.4,2.4,0,0,1,79.7,26.021,2.377,2.377,0,0,1,77.425,28.583ZM101.806,17.5H97.335V30H99.2V25.264h2.605a3.888,3.888,0,1,0,0-7.765Zm.048,6.025H99.2V19.239h2.654a2.143,2.143,0,1,1,0,4.285Zm11.532-1.8a3.5,3.5,0,0,0-3.329,1.914l1.657.692a1.768,1.768,0,0,1,1.7-.917,1.8,1.8,0,0,1,1.962,1.608v.129a4.128,4.128,0,0,0-1.946-.482c-1.785,0-3.6.981-3.6,2.815a2.888,2.888,0,0,0,3.1,2.75,2.632,2.632,0,0,0,2.38-1.222h.064v.965h1.8V25.187C117.181,22.967,115.525,21.729,113.386,21.729Zm-.225,6.851c-.611,0-1.464-.306-1.464-1.062,0-.965,1.061-1.335,1.978-1.335a3.324,3.324,0,0,1,1.7.418A2.262,2.262,0,0,1,113.16,28.58ZM123.743,22l-2.139,5.42h-.064L119.32,22h-2.01l3.329,7.575-1.9,4.214h1.946L125.818,22Zm-16.807,8H108.8V17.5h-1.866Z" style="fill: #fff"/>
          <g>
            <path d="M10.435,7.538a2,2,0,0,0-.463,1.4V31.059a2,2,0,0,0,.463,1.4l.074.072L22.9,20.147v-.292L10.509,7.466Z" style="fill: url(#linear-gradient)"/>
            <path d="M27.028,24.279,22.9,20.147v-.292l4.13-4.13.093.053,4.893,2.78c1.4.794,1.4,2.093,0,2.888l-4.893,2.78Z" style="fill: url(#linear-gradient-2)"/>
            <path d="M27.122,24.225,22.9,20,10.435,32.464a1.627,1.627,0,0,0,2.078.061l14.608-8.3" style="fill: url(#linear-gradient-3)"/>
            <path d="M27.122,15.777l-14.608-8.3a1.627,1.627,0,0,0-2.078.061L22.9,20Z" style="fill: url(#linear-gradient-4)"/>
            <g>
              <path d="M27.029,24.132,12.513,32.379a1.666,1.666,0,0,1-2,.011h0l-.075.075h0l.074.072h0a1.665,1.665,0,0,0,2-.011l14.608-8.3Z" style="opacity: 0.2;isolation: isolate"/>
              <path d="M10.435,32.318a2,2,0,0,1-.463-1.4v.146a2,2,0,0,0,.463,1.4l.075-.075Z" style="opacity: 0.12;isolation: isolate"/>
            </g>
            <path d="M32.015,21.3l-4.986,2.833.093.093,4.893-2.78A1.755,1.755,0,0,0,33.063,20h0A1.862,1.862,0,0,1,32.015,21.3Z" style="opacity: 0.12;isolation: isolate"/>
            <path d="M12.513,7.623l19.5,11.08A1.861,1.861,0,0,1,33.063,20h0a1.754,1.754,0,0,0-1.048-1.444l-19.5-11.08c-1.4-.794-2.541-.135-2.541,1.466V9.09C9.973,7.489,11.116,6.829,12.513,7.623Z" style="fill: #fff;opacity: 0.25;isolation: isolate"/>
          </g>
        </g>
        <g>
          <path d="M41.219,13V7h.77v5.263h2.6V13Z" style="fill: #fff;stroke: #fff;stroke-miterlimit: 10;stroke-width: 0.2px"/>
          <path d="M45.057,13l2.263-6h.871l2.263,6H49.6l-.578-1.626H46.5L45.911,13Zm1.7-2.347h1.994l-.98-2.706h-.033Z" style="fill: #fff;stroke: #fff;stroke-miterlimit: 10;stroke-width: 0.2px"/>
          <path d="M51.324,13V7h1.835a2.983,2.983,0,0,1,2.213.834A2.938,2.938,0,0,1,56.2,10a2.939,2.939,0,0,1-.829,2.166A2.983,2.983,0,0,1,53.159,13Zm.77-.737h1.065a2.251,2.251,0,0,0,1.646-.6A2.227,2.227,0,0,0,55.413,10a2.231,2.231,0,0,0-.607-1.664,2.245,2.245,0,0,0-1.646-.6H52.095Z" style="fill: #fff;stroke: #fff;stroke-miterlimit: 10;stroke-width: 0.2px"/>
          <path d="M57.282,13V7h1.835a2.983,2.983,0,0,1,2.213.834A2.938,2.938,0,0,1,62.159,10a2.939,2.939,0,0,1-.829,2.166A2.983,2.983,0,0,1,59.117,13Zm.77-.737h1.065a2.251,2.251,0,0,0,1.646-.6A2.227,2.227,0,0,0,61.371,10a2.231,2.231,0,0,0-.607-1.664,2.245,2.245,0,0,0-1.646-.6H58.053Z" style="fill: #fff;stroke: #fff;stroke-miterlimit: 10;stroke-width: 0.2px"/>
          <path d="M62.486,13l2.263-6h.871l2.263,6h-.855l-.578-1.626H63.928L63.341,13Zm1.7-2.347h1.994L65.2,7.947h-.033Z" style="fill: #fff;stroke: #fff;stroke-miterlimit: 10;stroke-width: 0.2px"/>
          <path d="M70.767,13V7h.939l2.916,4.668h.033l-.033-1.156V7h.772v6h-.8L71.537,8.107H71.5l.033,1.156V13Z" style="fill: #fff;stroke: #fff;stroke-miterlimit: 10;stroke-width: 0.2px"/>
          <path d="M80.269,7.737H77.536v1.9H80v.721H77.536v1.9h2.733V13h-3.5V7h3.5Z" style="fill: #fff;stroke: #fff;stroke-miterlimit: 10;stroke-width: 0.2px"/>
          <path d="M81.476,13V7H83.31a2.983,2.983,0,0,1,2.213.834A2.938,2.938,0,0,1,86.352,10a2.938,2.938,0,0,1-.829,2.166A2.983,2.983,0,0,1,83.31,13Zm.77-.737H83.31a2.251,2.251,0,0,0,1.647-.6A2.226,2.226,0,0,0,85.564,10a2.23,2.23,0,0,0-.608-1.664,2.245,2.245,0,0,0-1.647-.6H82.246Z" style="fill: #fff;stroke: #fff;stroke-miterlimit: 10;stroke-width: 0.2px"/>
          <path d="M90.215,13h-.77V7h2.045a1.9,1.9,0,0,1,1.319.507,1.743,1.743,0,0,1,0,2.556,1.893,1.893,0,0,1-1.319.507H90.215Zm0-3.168h1.291a1,1,0,0,0,.779-.326,1.033,1.033,0,0,0,0-1.441.994.994,0,0,0-.779-.327H90.215Z" style="fill: #fff;stroke: #fff;stroke-miterlimit: 10;stroke-width: 0.2px"/>
          <path d="M93.249,13l2.137-5.665a.885.885,0,0,1-.059-1.29.875.875,0,1,1,1.182,1.29L98.645,13h-.854l-.578-1.626H94.69L94.1,13Zm1.7-2.347h1.994l-.98-2.706h-.033Zm1-3.653a.332.332,0,1,0-.335-.335A.331.331,0,0,0,95.7,6.9a.31.31,0,0,0,.214.1Z" style="fill: #fff;stroke: #fff;stroke-miterlimit: 10;stroke-width: 0.2px"/>
        </g>
      </g>
    </g>
  </g>
</svg>
