<svg xmlns="http://www.w3.org/2000/svg" viewBox="0 0 52.69 33.78">
  <title>Asset 1</title>
  <g id="Layer_2" data-name="Layer 2">
    <g id="Layer_1-2" data-name="Layer 1">
      <g>
        <path d="M43.92,27.66l0,0,0,1s-.18-.05-.29-.09a2.3,2.3,0,0,0-1.49-.36.47.47,0,0,0-.3.26.39.39,0,0,0,0,.31,4,4,0,0,0,1.35.68,1.44,1.44,0,0,1,.91,1.14,1.42,1.42,0,0,1-.63,1.45,2.47,2.47,0,0,1-1.63.25,4.44,4.44,0,0,1-1.06-.18h0l0-1.14c.11,0,.24.1.35.15a3.49,3.49,0,0,0,1.39.45.58.58,0,0,0,.55-.25.52.52,0,0,0,0-.33c-.17-.36-.6-.4-.9-.58-.59-.24-1.4-.6-1.4-1.38a1.43,1.43,0,0,1,.83-1.43,3.41,3.41,0,0,1,1.63-.12,5.74,5.74,0,0,1,.62.14M25.76.29a1.83,1.83,0,0,1,.46.14V.51c.05.9,0,1.84.06,2.75l0,1.15h-.05a4.68,4.68,0,0,0-2.9-2.07,3.87,3.87,0,0,0-3.3.6,3.08,3.08,0,0,0-1.14,2.56c0,1.18.78,2,1.49,2.86.17.22.39.42.56.63A11,11,0,0,0,19,10.83L19,10.9l-.11-.09A10.4,10.4,0,0,1,16.8,8.26a5.51,5.51,0,0,1-.29-4.65A5.32,5.32,0,0,1,18.91.88a6.87,6.87,0,0,1,1.61-.6,16.16,16.16,0,0,1,2-.25,15.85,15.85,0,0,1,3.21.26m6.87-.1a9.45,9.45,0,0,1,1.12.29c.25.08.46.2.71.28a5.16,5.16,0,0,1,2.87,3.17,5.86,5.86,0,0,1-1,4.94,38.61,38.61,0,0,1-4.05,3.9c-1.37,1.26-2.38,2.86-2,4.76a11.6,11.6,0,0,0,.53,1.65,4.58,4.58,0,0,1-2.21,1.44A7,7,0,0,1,27,16.26a5.44,5.44,0,0,1,1.32-3.47,14.54,14.54,0,0,1,1.53-1.55,26.22,26.22,0,0,0,4.3-4.44,2.87,2.87,0,0,0,.18-2.51,3.16,3.16,0,0,0-1.83-1.86,4.27,4.27,0,0,0-2-.19,3.92,3.92,0,0,0-3.11,2.21h0V4l0-2.75c0-.22,0-.47,0-.7,0,0,0-.1,0-.1a3.13,3.13,0,0,1,.83-.2A14.26,14.26,0,0,1,31.73,0a6.9,6.9,0,0,1,.9.14" style="fill: #7f919e"/>
        <path d="M31.92,8.6v0a14.87,14.87,0,0,1-1.87,1.75,4.64,4.64,0,0,1-.73-.34,6,6,0,0,0-6,.45A6,6,0,0,0,20.9,17a8,8,0,0,0,1,2.15,1.83,1.83,0,0,1-.36.35,4.18,4.18,0,0,1-1.88,1h-.11c-.08-.1-.2-.24-.3-.38a7.75,7.75,0,0,1,2.33-11,12.62,12.62,0,0,1,3.08-1.35,9,9,0,0,1,7.26.76" style="fill: #7f919e"/>
        <path d="M24.07,11.49a7.11,7.11,0,0,1,2,2.59,5.81,5.81,0,0,1-.6,5.5,9.78,9.78,0,0,1-5.67,3.67,13.21,13.21,0,0,1-5.27.08c-.54-.09-1.08-.21-1.61-.33l-.14,0c0-.08,0-.21,0-.3,0-1.38-.06-2.7-.05-4,0,0,.06,0,.08,0a2.63,2.63,0,0,0,.32.45A5.69,5.69,0,0,0,16.07,21a6.09,6.09,0,0,0,.66.12,6,6,0,0,0,4.78-.89,4.27,4.27,0,0,0,1.67-4.68,5.12,5.12,0,0,0-1.53-2.12,4.78,4.78,0,0,1,1.74-2.35c.29,0,.44.29.69.44m10.51,0a.71.71,0,0,1,.1.14,7.84,7.84,0,0,1-1,8.54A8.7,8.7,0,0,1,31,22.25a10.66,10.66,0,0,1-1.64.65,10.46,10.46,0,0,1-5.22.47,6.87,6.87,0,0,1-1.65-.49s0-.05,0-.08a7.53,7.53,0,0,0,2.29-1.62,6.18,6.18,0,0,0,3.21.17,6.09,6.09,0,0,0,4.4-4,6.22,6.22,0,0,0,0-3.89s0-.09,0-.09c.38-.33.78-.74,1.2-1.1a10.25,10.25,0,0,1,.89-.73.62.62,0,0,1,.12-.06m6.12,7.12c0,1-.06,2-.06,3,0,.43,0,.89-.08,1.31-.19.1-.41.11-.61.2a16.56,16.56,0,0,1-4.93.42,12.43,12.43,0,0,1-2-.33,4.87,4.87,0,0,1-1.62-.58h0l0,0a12.32,12.32,0,0,0,2-1.49l.09-.08.3.09A7.08,7.08,0,0,0,39,20.36a6,6,0,0,0,1.68-1.76ZM3.84,25.86h0v1.19c0,.06,0,.06-.11,0a3.57,3.57,0,0,0-1.39-.54,1,1,0,0,0-.94.28.71.71,0,0,0-.11.63c.27.54.91.63,1.36.94a2.51,2.51,0,0,1,1.47,1.49,1.9,1.9,0,0,1-.51,1.9,3.61,3.61,0,0,1-2.91.48,4.25,4.25,0,0,1-.61-.16h0c0-.41,0-.9,0-1.29,0,0,0,0,.09,0a4.71,4.71,0,0,0,1.24.56,1.74,1.74,0,0,0,1.14,0,.75.75,0,0,0,.36-.74c0-.58-.7-.75-1.11-1a5.13,5.13,0,0,1-1.23-.74A1.76,1.76,0,0,1,0,27.15a1.8,1.8,0,0,1,1.11-1.33,4.31,4.31,0,0,1,2.7,0m17,0a6.93,6.93,0,0,0-.17,1.3v2.25A10.37,10.37,0,0,0,20.81,32c0,.11.07.22.09.32v0c-.35,0-.8,0-1.15,0h-.42c-.06,0,0-.13,0-.19a8.84,8.84,0,0,0,.18-2.4c0-.93,0-1.89,0-2.86a4.75,4.75,0,0,0-.17-.85.74.74,0,0,1,.34-.1l1.1-.18c.06,0,.07,0,.05.11m19.48,0a6.54,6.54,0,0,0-.18,1.3v2.25A10.57,10.57,0,0,0,40.29,32c0,.11.07.22.1.32v0c-.36,0-.81,0-1.15,0h-.41c-.06,0,0-.13,0-.19a8.78,8.78,0,0,0,.18-2.4c0-.93,0-1.89,0-2.86a5.33,5.33,0,0,0-.16-.85.7.7,0,0,1,.33-.1l1.09-.18c.07,0,.08,0,.06.11m-25.66.46a.8.8,0,0,1-.19.92.72.72,0,0,1-1.18-.32.8.8,0,0,1,.15-.74.72.72,0,0,1,.76-.24.71.71,0,0,1,.46.38" style="fill: #7f919e"/>
        <path d="M26.54,26.72a9.52,9.52,0,0,0,0,1l.18,0h1.9c.06,0,0,.19.08.29a10.2,10.2,0,0,0,.79,2,.07.07,0,0,0,.09,0,8.56,8.56,0,0,0,.59-1.59,2,2,0,0,0,.06-.67v0h1.13c.07,0,.09,0,.08,0a11.06,11.06,0,0,0-.86,2l-.07.17-1,2.48a3.43,3.43,0,0,1-1.05,1.37,1.38,1.38,0,0,1-.46,0,3.14,3.14,0,0,1-.53-.14l0,0a5.66,5.66,0,0,0,1.44-2.1.24.24,0,0,0,0-.11.58.58,0,0,0,0-.09L27.6,28.58l0,0c-.35,0-.71,0-1,0l0,0c0,.78-.08,1.53-.06,2.34,0,.15.06.34.23.43a1.18,1.18,0,0,0,.76.07c.07,0,.14-.06.23,0v.07l-.43.79a.82.82,0,0,1-.41.11A1.45,1.45,0,0,1,25.55,32c-.45-.61-.17-1.36-.21-2.09a13.28,13.28,0,0,0,0-1.39,0,0,0,0,0,0,0h0a1.73,1.73,0,0,1-.42,0,0,0,0,0,1,0,0,0,0,0,0,1,0,0l1.58-1.72s.09,0,.09,0" style="fill: #7f919e"/>
        <path d="M24.48,27.64l0,0,0,1s-.18-.05-.29-.09a2.31,2.31,0,0,0-1.49-.36.49.49,0,0,0-.3.26.4.4,0,0,0,0,.31,4.12,4.12,0,0,0,1.35.68,1.44,1.44,0,0,1,.91,1.13,1.42,1.42,0,0,1-.63,1.46,2.46,2.46,0,0,1-1.64.25,4.29,4.29,0,0,1-1.05-.18h0l0-1.14c.11,0,.23.1.35.15a3.5,3.5,0,0,0,1.39.45.58.58,0,0,0,.55-.25.5.5,0,0,0,0-.32c-.17-.36-.6-.41-.9-.58-.6-.23-1.41-.6-1.4-1.38a1.43,1.43,0,0,1,.84-1.43,3.4,3.4,0,0,1,1.63-.12,5.86,5.86,0,0,1,.62.14m-11.78,0v1.08s0,0-.1,0A1.87,1.87,0,0,0,11,28.49c-.59.22-.59.86-.61,1.4a1.47,1.47,0,0,0,.69,1.36,2.4,2.4,0,0,0,1.67,0h.05a.27.27,0,0,1,0,.06c-.17.3-.32.61-.46.93-.08.1-.28.09-.4.11a2.29,2.29,0,0,1-2.19-.73A2.81,2.81,0,0,1,9.43,29a2.45,2.45,0,0,1,1.42-1.3,4,4,0,0,1,1.76,0Zm2,.09v0a8.73,8.73,0,0,0-.23,2.65,5.44,5.44,0,0,0,.17,1.84s0,0,0,0h0c-.49,0-1,0-1.46,0h0s0,0,0,0a8.3,8.3,0,0,0,.23-2.5,5.48,5.48,0,0,0-.2-2c.08-.07.29-.06.38-.06.37,0,.83,0,1.2,0m19.66-.11v1a3.38,3.38,0,0,0-.47,0,1.16,1.16,0,0,0-.8.42l0,.21a13.36,13.36,0,0,0,.18,3c-.21.08-.41,0-.61,0h-.93v0a3.87,3.87,0,0,0,.19-1.06V29.13a4.78,4.78,0,0,0-.22-1.36v0h1.35v0c0,.2,0,.37,0,.56,0,0,0,0,0,0,.16-.24.31-.62.64-.67a1.84,1.84,0,0,1,.61,0Zm18.06.71a1.05,1.05,0,0,1,.11.37c0,.94,0,1.89,0,2.83a5.85,5.85,0,0,0,.13.76v0H51.29c-.08,0-.08,0,0-.13a10,10,0,0,0,.18-2.45c0-.35.11-.79-.22-1a1,1,0,0,0-1,0,.26.26,0,0,0-.07.22,16.1,16.1,0,0,0,.11,3.28v0c-.44,0-1,0-1.48,0,0,0,0,0,0-.06A4.56,4.56,0,0,0,49,30.7a12.08,12.08,0,0,0-.13-2.92v0h1.32v.07a3.5,3.5,0,0,0,0,.71s.09-.06.11-.09l.34-.58a.86.86,0,0,1,.5-.16,1.27,1.27,0,0,1,1.32.67m-44,0a2.82,2.82,0,0,1,.29,2.75,2,2,0,0,1-1.83,1.25,2,2,0,0,1-1.86-.72,2.74,2.74,0,0,1-.4-2.68,2,2,0,0,1,.86-1.08A2.38,2.38,0,0,1,8,27.93Zm-1.29.18a1.17,1.17,0,0,0-.77,0,1.23,1.23,0,0,0-.65,1.07c0,.58-.09,1.24.33,1.64a.94.94,0,0,0,1,.1c.58-.27.66-.94.67-1.52a2.16,2.16,0,0,0-.18-1,.92.92,0,0,0-.41-.34Zm31-.06a2.89,2.89,0,0,1,.25.78c0,.26,0,.53,0,.77v0l-2.81,0c-.11.16,0,.44,0,.55a1.1,1.1,0,0,0,.73.73,2.59,2.59,0,0,0,1.65-.15c.14-.07.24-.14.38-.2s0,.09,0,.13a9.6,9.6,0,0,0-.45,1,.91.91,0,0,1-.37.13,3.35,3.35,0,0,1-2-.16,2.54,2.54,0,0,1-1.09-2.7,2.08,2.08,0,0,1,1-1.62,2.2,2.2,0,0,1,2.28.05,1.87,1.87,0,0,1,.49.6m-2.15,0a.87.87,0,0,0-.46.76s0,0,.06.06h1.62v0a.76.76,0,0,0-.13-.49.93.93,0,0,0-1.1-.3m12.14,0a2.77,2.77,0,0,1,.24.78c0,.26,0,.52,0,.77v0l-2.81,0c-.11.16,0,.44,0,.55a1.09,1.09,0,0,0,.72.73,2.59,2.59,0,0,0,1.65-.15c.14-.07.24-.14.38-.2s0,.09,0,.13a9.24,9.24,0,0,0-.45,1,1,1,0,0,1-.37.13,3.36,3.36,0,0,1-2-.16,2.54,2.54,0,0,1-1.09-2.7,2.08,2.08,0,0,1,1-1.62,2.2,2.2,0,0,1,2.27.05,1.83,1.83,0,0,1,.49.6m-2.15,0a.87.87,0,0,0-.45.75s0,0,.06.06h1.62v0a.74.74,0,0,0-.13-.49.92.92,0,0,0-1.1-.3M18.29,28a1.78,1.78,0,0,1,.41,1.43c0,.62,0,1.28,0,1.92a3.6,3.6,0,0,0,.12.93v0H17.63a.1.1,0,0,1-.07-.07c0-.21,0-.4,0-.6,0,0,0,0-.07,0-.18.21-.33.44-.49.64a1.44,1.44,0,0,1-.71.09,1.58,1.58,0,0,1-.79-.27A1.2,1.2,0,0,1,15,31a1.34,1.34,0,0,1,1-1.08l1.51-.61c.09-.08.06-.34.06-.38a.5.5,0,0,0-.28-.43,1.71,1.71,0,0,0-1.23.11,5.06,5.06,0,0,0-.58.29c-.06,0-.07,0-.07,0,.07-.33.12-.72.21-1l.09,0a4.61,4.61,0,0,1,1.94-.1,1.24,1.24,0,0,1,.64.28m-.86,2c-.44,0-.9,0-1.16.33a.94.94,0,0,0,0,.93.86.86,0,0,0,.88.25c.08,0,.31-.08.36-.25,0-.37,0-.78,0-1.17a.12.12,0,0,0,0-.07.23.23,0,0,0-.08,0" style="fill: #7f919e"/>
      </g>
    </g>
  </g>
</svg>
